# xmcd
#
# Track frame offsets:
#	150
#	16608
#	33851
#	55196
#	72019
#	87174
#	103398
#	120769
#	138504
#	152494
#	168949
#	186570
#	201425
#	220426
#	238672
#	254933
#	275212
#	294455
#	312537
#
# Disc length: 4372 seconds
# Revision: 1
# Processed by: cddbd v1.5.2PL0 Copyright (c) Steve Scherf et al.
# Submitted via: dBpowerAMP V12.0
#
DISCID=20111213
DTITLE=Various Artist - Double Cream The Best of Cream of Country
DYEAR=2009
DGENRE=Country
TTITLE0=Brooks and Dunn - Lovin' All Night
TTITLE1=Kenny Chesney - Beautiful Mess
TTITLE2=Carrie Underwood - Dancin',Shaggin' on the Boulevarde
TTITLE3=Alan Jackson - Red High Heels
TTITLE4=Brad Paisley - Save a Horse (Ride a Cowboy)
TTITLE5=Leann Rimes - Better Man Better Off
TTITLE6=Tim McGraw - Somebody
TTITLE7=Toby Keith - The Baby
TTITLE8=Gretchen Wilson - Kreosene
TTITLE9=Sawyer Brown - If Your Going Through Hell (Before Even the Devil Knows)
TTITLE10=Lonestar - Just Another Day in Paradise
TTITLE11=Lee Ann Womack - All the Good Ones Are Gone
TTITLE12=George Strait - Old Dogs and Watermelon Wine
TTITLE13=Buddy Jewell - I Miss My Friend
TTITLE14=martina McBride - Please
TTITLE15=Gary Allen - When I Said I Do
TTITLE16=Jo Dee Messina - Something to Be Proud of
TTITLE17=The Statler Brothers - A Real Fine Place to Start
TTITLE18=Collin RayeEveryone - You and You Alone
EXTD=
EXTT0=
EXTT1=
EXTT2=
EXTT3=
EXTT4=
EXTT5=
EXTT6=
EXTT7=
EXTT8=
EXTT9=
EXTT10=
EXTT11=
EXTT12=
EXTT13=
EXTT14=
EXTT15=
EXTT16=
EXTT17=
EXTT18=
PLAYORDER=
